<svg width="496" height="497" xmlns="http://www.w3.org/2000/svg">
 <title>Season-winter-weather-summer-autumn-spring</title>

 <g>
  <title>background</title>
  <rect fill="none" id="canvas_background" height="499" width="498" y="-1" x="-1"/>
 </g>
 <g>
  <title>Layer 1</title>
  <path id="svg_1" d="m356.1,429.2l8,13.8c32.7,-18.9 59.9,-46.1 78.8,-78.7l-13.8,-8c-17.6,30.2 -42.8,55.4 -73,72.9z"/>
  <path id="svg_2" d="m433.5,163.7l14.2,-7.4c-22,-42.1 -57.3,-75.8 -100.3,-96.1l-6.8,14.5c39.9,18.8 72.5,50 92.9,89z"/>
  <path id="svg_3" d="m169,75.8l-7,-14.4c-33,16 -61.4,40 -82.5,69.9l13.1,9.2c19.6,-27.6 45.9,-49.9 76.4,-64.7z"/>
  <path id="svg_4" d="m93.4,372.5l-13,9.3c16.3,22.7 36.8,42.1 60.4,57l8.5,-13.5c-21.8,-13.9 -40.8,-31.8 -55.9,-52.8z"/>
  <path fill="#ffd800" id="svg_5" d="m256,168c35.3,0 64,-28.7 64,-64s-28.7,-64 -64,-64s-64,28.7 -64,64c0,35.3 28.7,64 64,64zm0,-112c26.5,0 48,21.5 48,48s-21.5,48 -48,48s-48,-21.5 -48,-48c0,-26.5 21.5,-48 48,-48z"/>
  <rect fill="#ff7f00" id="svg_6" height="16" width="24" y="108" x="340"/>
  <rect fill="#ff7f00" id="svg_7" height="24" width="16" y="0" x="253"/>
  <rect fill="#ff7f00" id="svg_8" height="16" width="24" y="111" x="148"/>
  <rect fill="#ff7f00" id="svg_9" height="24" width="16" y="192" x="248"/>
  <rect fill="#ff7f00" id="svg_10" height="16" width="22.6" transform="matrix(0.7071,-0.7071,0.7071,0.7071,54.1278,242.6762) " y="43.75732" x="329.91341"/>
  <rect fill="#ff7f00" id="svg_11" height="22.6" width="16" transform="matrix(0.7071,-0.7071,0.7071,0.7071,16.6375,152.1665) " y="29.1435" x="193.89959"/>
  <rect fill="#ff7f00" id="svg_12" height="22.6" width="16" transform="matrix(0.7071,-0.7071,0.7071,0.7071,-36.3818,280.1665) " y="174.82134" x="316.94979"/>
  <rect fill="#005fbf" id="svg_13" height="16" width="33.9" transform="matrix(0.7071,-0.7071,0.7071,0.7071,-129.5189,335.3137) " y="316" x="323"/>
  <rect fill="#005fbf" id="svg_14" height="16" width="33.9" transform="matrix(0.7071,-0.7071,0.7071,0.7071,-115.46,369.2548) " y="316" x="371"/>
  <rect fill="#005fbf" id="svg_15" height="16" width="33.9" transform="matrix(0.7071,-0.7071,0.7071,0.7071,-101.4011,403.196) " y="316" x="419"/>
  <path fill="#bf5f00" id="svg_16" d="m264,336l-12.9,0l5.8,11.6c9.4,18.8 11.6,40.5 6,60.8l-2.7,9.7c-5.3,19.3 3.6,39.7 21.4,49c-4.1,5.5 -8.9,10.3 -14.4,14.4l9.6,12.8c8.3,-6.2 15.4,-13.9 21,-22.6c1.2,0.1 2.4,0.2 3.6,0.2c23.5,0 42.6,-19.1 42.6,-42.6l0,-13.3c0,-44.2 -35.8,-80 -80,-80zm25.7,117.3c-11.5,-5.6 -17.4,-18.6 -14,-31l1.6,-5.8l18,18c-1.1,6.5 -2.9,12.8 -5.6,18.8zm38.3,-37.3l0,13.4c0,12.9 -9.2,23.9 -21.9,26.2c3.5,-9 5.5,-18.5 5.8,-28.2l15.9,-15.9c0.1,1.5 0.2,3 0.2,4.5zm-16,-11.3l0,-12.7l-16,0l0,20.7l-14.8,-14.8c1.8,-15 0.2,-30.3 -4.7,-44.6c21.5,4.3 39.3,19.3 47.2,39.8l-11.7,11.6z"/>
  <path fill="#bf5f00" id="svg_17" d="m241.1,423.6l2.7,-9.7c5.3,-19.3 -3.6,-39.7 -21.4,-49c4.1,-5.5 8.9,-10.3 14.4,-14.4l-9.6,-12.8c-8.3,6.2 -15.4,13.9 -21,22.6c-1.2,-0.1 -2.4,-0.2 -3.6,-0.2c-23.5,0 -42.6,19.1 -42.6,42.6l0,13.3c0,44.2 35.8,80 80,80l12.9,0l-5.8,-11.6c-9.4,-18.8 -11.5,-40.5 -6,-60.8zm-65.1,-7.6l0,-13.4c0,-12.9 9.2,-23.9 21.9,-26.2c-3.5,9 -5.5,18.5 -5.8,28.2l-15.9,15.9c-0.1,-1.5 -0.2,-3 -0.2,-4.5zm4.3,23l11.7,-11.7l0,12.7l16,0l0,-20.7l14.8,14.8c-1.8,15 -0.2,30.3 4.7,44.6c-21.5,-4.3 -39.3,-19.2 -47.2,-39.7zm48,-29.3l-1.6,5.8l-18,-18c1,-6.5 2.8,-12.8 5.5,-18.8c11.6,5.6 17.5,18.6 14.1,31z"/>
  <polygon fill="#ffffff" id="svg_18" points="108,269.1000061035156 147.89999389648438,293.1000061035156 158.10000610351562,333.79998779296875 173.60000610351562,329.8999938964844 167.3000030517578,304.79998779296875 185,315.3999938964844 193.3000030517578,301.70001220703125 175.5,291 200.6999969482422,284.79998779296875 196.8000030517578,269.20001220703125 156.10000610351562,279.3999938964844 115.5,255 156.10000610351562,230.60000610351562 196.8000030517578,240.8000030517578 200.6999969482422,225.1999969482422 175.5,219 193.3000030517578,208.3000030517578 185,194.60000610351562 167.3000030517578,205.1999969482422 173.60000610351562,180.10000610351562 158.10000610351562,176.1999969482422 147.89999389648438,216.89999389648438 108,240.89999389648438 108,194.3000030517578 137.6999969482422,164.6999969482422 126.30000305175781,153.3000030517578 108,171.6999969482422 108,151 92,151 92,171.6999969482422 73.69999694824219,153.3000030517578 62.30000305175781,164.6999969482422 92,194.3000030517578 92,240.89999389648438 52.099998474121094,216.89999389648438 41.900001525878906,176.1999969482422 26.400001525878906,180.10000610351562 32.70000076293945,205.1999969482422 15,194.60000610351562 6.700000762939453,208.3000030517578 24.5,219 -0.7000007629394531,225.1999969482422 3.200000762939453,240.8000030517578 43.900001525878906,230.60000610351562 84.5,255 43.900001525878906,279.3999938964844 3.200000762939453,269.20001220703125 -0.7000007629394531,284.79998779296875 24.5,291 6.700000762939453,301.70001220703125 15,315.3999938964844 32.70000076293945,304.79998779296875 26.400001525878906,329.8999938964844 41.900001525878906,333.79998779296875 52.099998474121094,293.1000061035156 92,269.1000061035156 92,315.70001220703125 62.30000305175781,345.29998779296875 73.69999694824219,356.70001220703125 92,338.29998779296875 92,359 108,359 108,338.29998779296875 126.30000305175781,356.70001220703125 137.6999969482422,345.29998779296875 108,315.70001220703125 "/>
  <path fill="#5481ad" id="svg_19" d="m456,216c-2.7,0 -5.4,0.3 -8,0.8c0,-0.3 0,-0.5 0,-0.8c0,-26.5 -21.5,-48 -48,-48s-48,21.5 -48,48c0,0.3 0,0.5 0,0.8c-21.6,-4.4 -42.8,9.5 -47.2,31.2c-4.4,21.6 9.5,42.8 31.2,47.2c2.6,0.5 5.3,0.8 8,0.8l112,0c22.1,0 40,-17.9 40,-40s-17.9,-40 -40,-40zm0,64l-112,0c-13.3,0 -24,-10.7 -24,-24c0,-13.3 10.7,-24 24,-24s24,10.7 24,24l16,0c0,-12 -5.4,-23.4 -14.7,-31c-5,-17 4.7,-34.7 21.7,-39.7c17,-5 34.7,4.7 39.7,21.7c2.9,9.7 1,20.2 -5.1,28.2l12.8,9.6c2.2,-3 4.1,-6.2 5.6,-9.6l0,0c11.5,-6.6 26.2,-2.7 32.8,8.8c6.6,11.5 2.7,26.2 -8.8,32.8c-3.7,2.1 -7.8,3.2 -12,3.2z"/>
 </g>
</svg>