<svg width="55" height="60" xmlns="http://www.w3.org/2000/svg">
 <title>Winter, season, sunny, snow, weather, snowflake, sun</title>

 <g>
  <title>background</title>
  <rect fill="none" id="canvas_background" height="62" width="57" y="-1" x="-1"/>
 </g>
 <g>
  <title>Layer 1</title>
  <g id="svg_1">
   <path fill="#ed4242" id="svg_2" d="m50.4248,31.71909a3.0125,3.0125 0 0 1 0,-3.4414l5.3945,-7.7061a1,1 0 0 0 -0.6318,-1.5556l-7.7012,-1.4722a3.0036,3.0036 0 0 1 -2.43,-3.1582l0.57,-8.0767a0.9994,0.9994 0 0 0 -1.4043,-0.9834l-7.4034,3.3042a3.003,3.003 0 0 1 -3.7949,-1.1967l-4.167,-6.9488a1,1 0 0 0 -1.8567,0.5142l0,3.9193l-3.375,-2.7a1,1 0 1 0 -1.25,1.5616l4.625,3.6999l0,2.4385l-3.375,-2.7a1,1 0 1 0 -1.25,1.5616l4.625,3.7l0,7.901l-4.8027,2.4014l-5.9431,-5.9433l0.654,-5.8865a1,1 0 0 0 -1.9883,-0.2207l-0.4769,4.296l-1.724,-1.724l0.654,-5.8869a1,1 0 0 0 -1.9882,-0.2207l-0.477,4.2965l-3.2008,-3.2007a1,1 0 0 0 -1.414,1.414l3.2006,3.2007l-4.2963,0.4776a1,1 0 0 0 0.1093,1.9936a0.9443,0.9443 0 0 0 0.1114,-0.0063l5.8861,-0.6544l1.7246,1.7246l-4.2963,0.4776a1,1 0 0 0 0.1094,1.9937a0.9564,0.9564 0 0 0 0.1113,-0.0064l5.8866,-0.654l6.16,6.16l0,4.5863l-8.5189,0l-3.6995,-4.6245a1,1 0 0 0 -1.5625,1.249l2.7012,3.3755l-2.4392,0l-3.7,-4.6245a1,1 0 0 0 -1.5625,1.249l2.7017,3.3755l-3.92,0a1,1 0 0 0 0,2l3.92,0l-2.7012,3.3755a1,1 0 0 0 1.5625,1.249l3.6995,-4.6245l2.4392,0l-2.7008,3.3755a1,1 0 0 0 1.5625,1.249l3.6991,-4.6245l8.5192,0l0,4a1,1 0 0 0 0.1171,0.4688l-6.2771,6.2775l-5.8866,-0.654a1,1 0 1 0 -0.2207,1.9873l4.2963,0.4776l-1.7246,1.7246l-5.8864,-0.6544a1,1 0 1 0 -0.2207,1.9873l4.2963,0.4776l-3.2006,3.2007a1,1 0 0 0 1.414,1.414l3.2008,-3.2008l0.477,4.2965a1,1 0 0 0 1.9882,-0.2207l-0.654,-5.8869l1.724,-1.724l0.4769,4.296a1,1 0 0 0 0.9932,0.89a0.956,0.956 0 0 0 0.1113,-0.0063a1,1 0 0 0 0.8838,-1.104l-0.654,-5.8865l6.4732,-6.4732l4.2726,2.8481l0,7.984l-4.625,3.7a1,1 0 1 0 1.25,1.5616l3.375,-2.7l0,2.4385l-4.625,3.7a1,1 0 1 0 1.25,1.5616l3.375,-2.7l0,3.9191a1,1 0 0 0 1.8574,0.5142l4.167,-6.9488a3.0043,3.0043 0 0 1 3.7956,-1.1967l7.4024,3.3042a0.9994,0.9994 0 0 0 1.4046,-0.9829l-0.7579,-10.7339l10.3184,-1.9732a1,1 0 0 0 0.6318,-1.5556l-5.3945,-7.7066zm-21.4248,-13.6792a12,12 0 0 1 0,23.917l0,-23.917zm-6,16.4233l0,-9.8466l4,-2l0,14.5133l-4,-2.6667zm20.6221,6.6929a0.9992,0.9992 0 0 0 -0.81,1.0527l0.7021,9.9566l-5.8789,-2.6245a5.0045,5.0045 0 0 0 -6.3253,1.9946l-2.31,3.8511l0,-11.4389a13.984,13.984 0 0 0 0,-27.8986l0,-11.4389l2.31,3.8511a5.0021,5.0021 0 0 0 6.3252,1.9946l5.88,-2.6245l-0.4521,6.4136a5.0031,5.0031 0 0 0 4.0482,5.2634l6.1836,1.1821l-4.5088,6.4409a5.0164,5.0164 0 0 0 0,5.7344l4.5088,6.4409l-9.6728,1.8494z"/>
  </g>
  <text id="svg_4" font-family="'Helvetica Neue', Helvetica, Arial-Unicode, Arial, Sans-serif" font-weight="bold" font-size="5px" fill="#000000" y="84" x="0">from the Noun Project</text>
 </g>
</svg>